STARTFONT 2.1
FONT ZX Palm
SIZE 8 75 75
FONTBOUNDINGBOX 8 8 0 -1
STARTPROPERTIES 3
FONT_DESCENT 1
FONT_ASCENT 7
DEFAULT_CHAR 255
ENDPROPERTIES
CHARS 138
STARTCHAR U+0020
ENCODING 32
SWIDTH 666 0
DWIDTH 8 0
BBX 8 8 0 -1
BITMAP
00
00
00
00
00
00
00
00
ENDCHAR
STARTCHAR U+0021
ENCODING 33
SWIDTH 666 0
DWIDTH 8 0
BBX 8 8 0 -1
BITMAP
10
10
10
10
10
00
10
00
ENDCHAR
STARTCHAR U+0022
ENCODING 34
SWIDTH 666 0
DWIDTH 8 0
BBX 8 8 0 -1
BITMAP
28
28
28
00
00
00
00
00
ENDCHAR
STARTCHAR U+0023
ENCODING 35
SWIDTH 666 0
DWIDTH 8 0
BBX 8 8 0 -1
BITMAP
14
14
7e
28
fc
50
50
00
ENDCHAR
STARTCHAR U+0024
ENCODING 36
SWIDTH 666 0
DWIDTH 8 0
BBX 8 8 0 -1
BITMAP
3c
50
50
38
14
14
78
00
ENDCHAR
STARTCHAR U+0025
ENCODING 37
SWIDTH 666 0
DWIDTH 8 0
BBX 8 8 0 -1
BITMAP
44
a4
a8
54
2a
4a
44
00
ENDCHAR
STARTCHAR U+0026
ENCODING 38
SWIDTH 666 0
DWIDTH 8 0
BBX 8 8 0 -1
BITMAP
18
24
28
10
2a
44
3a
00
ENDCHAR
STARTCHAR U+0027
ENCODING 39
SWIDTH 666 0
DWIDTH 8 0
BBX 8 8 0 -1
BITMAP
10
10
10
00
00
00
00
00
ENDCHAR
STARTCHAR U+0028
ENCODING 40
SWIDTH 666 0
DWIDTH 8 0
BBX 8 8 0 -1
BITMAP
08
10
20
20
20
10
08
00
ENDCHAR
STARTCHAR U+0029
ENCODING 41
SWIDTH 666 0
DWIDTH 8 0
BBX 8 8 0 -1
BITMAP
20
10
08
08
08
10
20
00
ENDCHAR
STARTCHAR U+002a
ENCODING 42
SWIDTH 666 0
DWIDTH 8 0
BBX 8 8 0 -1
BITMAP
00
28
10
6c
10
28
00
00
ENDCHAR
STARTCHAR U+002b
ENCODING 43
SWIDTH 666 0
DWIDTH 8 0
BBX 8 8 0 -1
BITMAP
00
08
08
3e
08
08
00
00
ENDCHAR
STARTCHAR U+002c
ENCODING 44
SWIDTH 666 0
DWIDTH 8 0
BBX 8 8 0 -1
BITMAP
00
00
00
00
00
00
10
20
ENDCHAR
STARTCHAR U+002d
ENCODING 45
SWIDTH 666 0
DWIDTH 8 0
BBX 8 8 0 -1
BITMAP
00
00
00
3c
00
00
00
00
ENDCHAR
STARTCHAR U+002e
ENCODING 46
SWIDTH 666 0
DWIDTH 8 0
BBX 8 8 0 -1
BITMAP
00
00
00
00
00
00
10
00
ENDCHAR
STARTCHAR U+002f
ENCODING 47
SWIDTH 666 0
DWIDTH 8 0
BBX 8 8 0 -1
BITMAP
04
04
08
10
10
20
20
00
ENDCHAR
STARTCHAR U+0030
ENCODING 48
SWIDTH 666 0
DWIDTH 8 0
BBX 8 8 0 -1
BITMAP
18
24
24
24
24
24
18
00
ENDCHAR
STARTCHAR U+0031
ENCODING 49
SWIDTH 666 0
DWIDTH 8 0
BBX 8 8 0 -1
BITMAP
08
18
08
08
08
08
08
00
ENDCHAR
STARTCHAR U+0032
ENCODING 50
SWIDTH 666 0
DWIDTH 8 0
BBX 8 8 0 -1
BITMAP
18
24
04
08
10
20
3c
00
ENDCHAR
STARTCHAR U+0033
ENCODING 51
SWIDTH 666 0
DWIDTH 8 0
BBX 8 8 0 -1
BITMAP
18
24
04
08
04
24
18
00
ENDCHAR
STARTCHAR U+0034
ENCODING 52
SWIDTH 666 0
DWIDTH 8 0
BBX 8 8 0 -1
BITMAP
04
0c
14
24
3c
04
04
00
ENDCHAR
STARTCHAR U+0035
ENCODING 53
SWIDTH 666 0
DWIDTH 8 0
BBX 8 8 0 -1
BITMAP
3c
20
20
38
04
04
38
00
ENDCHAR
STARTCHAR U+0036
ENCODING 54
SWIDTH 666 0
DWIDTH 8 0
BBX 8 8 0 -1
BITMAP
08
10
20
38
24
24
18
00
ENDCHAR
STARTCHAR U+0037
ENCODING 55
SWIDTH 666 0
DWIDTH 8 0
BBX 8 8 0 -1
BITMAP
3c
04
08
08
10
10
10
00
ENDCHAR
STARTCHAR U+0038
ENCODING 56
SWIDTH 666 0
DWIDTH 8 0
BBX 8 8 0 -1
BITMAP
18
24
24
18
24
24
18
00
ENDCHAR
STARTCHAR U+0039
ENCODING 57
SWIDTH 666 0
DWIDTH 8 0
BBX 8 8 0 -1
BITMAP
18
24
24
1c
04
08
10
00
ENDCHAR
STARTCHAR U+003a
ENCODING 58
SWIDTH 666 0
DWIDTH 8 0
BBX 8 8 0 -1
BITMAP
00
00
10
00
00
00
10
00
ENDCHAR
STARTCHAR U+003b
ENCODING 59
SWIDTH 666 0
DWIDTH 8 0
BBX 8 8 0 -1
BITMAP
00
00
10
00
00
00
10
20
ENDCHAR
STARTCHAR U+003c
ENCODING 60
SWIDTH 666 0
DWIDTH 8 0
BBX 8 8 0 -1
BITMAP
00
04
18
60
18
04
00
00
ENDCHAR
STARTCHAR U+003d
ENCODING 61
SWIDTH 666 0
DWIDTH 8 0
BBX 8 8 0 -1
BITMAP
00
00
38
00
38
00
00
00
ENDCHAR
STARTCHAR U+003e
ENCODING 62
SWIDTH 666 0
DWIDTH 8 0
BBX 8 8 0 -1
BITMAP
00
20
18
06
18
20
00
00
ENDCHAR
STARTCHAR U+003f
ENCODING 63
SWIDTH 666 0
DWIDTH 8 0
BBX 8 8 0 -1
BITMAP
38
04
08
10
10
00
10
00
ENDCHAR
STARTCHAR U+0040
ENCODING 64
SWIDTH 666 0
DWIDTH 8 0
BBX 8 8 0 -1
BITMAP
38
44
9a
aa
94
40
38
00
ENDCHAR
STARTCHAR U+0041
ENCODING 65
SWIDTH 666 0
DWIDTH 8 0
BBX 8 8 0 -1
BITMAP
18
24
24
3c
24
24
24
00
ENDCHAR
STARTCHAR U+0042
ENCODING 66
SWIDTH 666 0
DWIDTH 8 0
BBX 8 8 0 -1
BITMAP
38
24
24
38
24
24
38
00
ENDCHAR
STARTCHAR U+0043
ENCODING 67
SWIDTH 666 0
DWIDTH 8 0
BBX 8 8 0 -1
BITMAP
0c
10
20
20
20
10
0c
00
ENDCHAR
STARTCHAR U+0044
ENCODING 68
SWIDTH 666 0
DWIDTH 8 0
BBX 8 8 0 -1
BITMAP
38
24
22
22
22
24
38
00
ENDCHAR
STARTCHAR U+0045
ENCODING 69
SWIDTH 666 0
DWIDTH 8 0
BBX 8 8 0 -1
BITMAP
38
20
20
38
20
20
38
00
ENDCHAR
STARTCHAR U+0046
ENCODING 70
SWIDTH 666 0
DWIDTH 8 0
BBX 8 8 0 -1
BITMAP
38
20
20
38
20
20
20
00
ENDCHAR
STARTCHAR U+0047
ENCODING 71
SWIDTH 666 0
DWIDTH 8 0
BBX 8 8 0 -1
BITMAP
1c
20
40
4c
44
24
1c
00
ENDCHAR
STARTCHAR U+0048
ENCODING 72
SWIDTH 666 0
DWIDTH 8 0
BBX 8 8 0 -1
BITMAP
24
24
24
3c
24
24
24
00
ENDCHAR
STARTCHAR U+0049
ENCODING 73
SWIDTH 666 0
DWIDTH 8 0
BBX 8 8 0 -1
BITMAP
10
10
10
10
10
10
10
00
ENDCHAR
STARTCHAR U+004a
ENCODING 74
SWIDTH 666 0
DWIDTH 8 0
BBX 8 8 0 -1
BITMAP
08
08
08
08
08
08
30
00
ENDCHAR
STARTCHAR U+004b
ENCODING 75
SWIDTH 666 0
DWIDTH 8 0
BBX 8 8 0 -1
BITMAP
44
48
50
60
50
48
44
00
ENDCHAR
STARTCHAR U+004c
ENCODING 76
SWIDTH 666 0
DWIDTH 8 0
BBX 8 8 0 -1
BITMAP
20
20
20
20
20
20
38
00
ENDCHAR
STARTCHAR U+004d
ENCODING 77
SWIDTH 666 0
DWIDTH 8 0
BBX 8 8 0 -1
BITMAP
c6
c6
aa
aa
aa
92
92
00
ENDCHAR
STARTCHAR U+004e
ENCODING 78
SWIDTH 666 0
DWIDTH 8 0
BBX 8 8 0 -1
BITMAP
44
64
54
54
4c
44
44
00
ENDCHAR
STARTCHAR U+004f
ENCODING 79
SWIDTH 666 0
DWIDTH 8 0
BBX 8 8 0 -1
BITMAP
18
24
42
42
42
24
18
00
ENDCHAR
STARTCHAR U+0050
ENCODING 80
SWIDTH 666 0
DWIDTH 8 0
BBX 8 8 0 -1
BITMAP
38
24
24
38
20
20
20
00
ENDCHAR
STARTCHAR U+0051
ENCODING 81
SWIDTH 666 0
DWIDTH 8 0
BBX 8 8 0 -1
BITMAP
18
24
42
42
42
24
18
06
ENDCHAR
STARTCHAR U+0052
ENCODING 82
SWIDTH 666 0
DWIDTH 8 0
BBX 8 8 0 -1
BITMAP
38
24
24
38
28
24
24
00
ENDCHAR
STARTCHAR U+0053
ENCODING 83
SWIDTH 666 0
DWIDTH 8 0
BBX 8 8 0 -1
BITMAP
1c
20
20
18
04
04
38
00
ENDCHAR
STARTCHAR U+0054
ENCODING 84
SWIDTH 666 0
DWIDTH 8 0
BBX 8 8 0 -1
BITMAP
7c
10
10
10
10
10
10
00
ENDCHAR
STARTCHAR U+0055
ENCODING 85
SWIDTH 666 0
DWIDTH 8 0
BBX 8 8 0 -1
BITMAP
44
44
44
44
44
44
38
00
ENDCHAR
STARTCHAR U+0056
ENCODING 86
SWIDTH 666 0
DWIDTH 8 0
BBX 8 8 0 -1
BITMAP
44
44
44
28
28
10
10
00
ENDCHAR
STARTCHAR U+0057
ENCODING 87
SWIDTH 666 0
DWIDTH 8 0
BBX 8 8 0 -1
BITMAP
92
92
aa
aa
44
44
44
00
ENDCHAR
STARTCHAR U+0058
ENCODING 88
SWIDTH 666 0
DWIDTH 8 0
BBX 8 8 0 -1
BITMAP
44
44
28
10
28
44
44
00
ENDCHAR
STARTCHAR U+0059
ENCODING 89
SWIDTH 666 0
DWIDTH 8 0
BBX 8 8 0 -1
BITMAP
44
44
28
10
10
10
10
00
ENDCHAR
STARTCHAR U+005a
ENCODING 90
SWIDTH 666 0
DWIDTH 8 0
BBX 8 8 0 -1
BITMAP
7c
04
08
10
20
40
7c
00
ENDCHAR
STARTCHAR U+005b
ENCODING 91
SWIDTH 666 0
DWIDTH 8 0
BBX 8 8 0 -1
BITMAP
18
10
10
10
10
10
18
00
ENDCHAR
STARTCHAR U+005c
ENCODING 92
SWIDTH 666 0
DWIDTH 8 0
BBX 8 8 0 -1
BITMAP
20
20
10
08
08
04
04
00
ENDCHAR
STARTCHAR U+005d
ENCODING 93
SWIDTH 666 0
DWIDTH 8 0
BBX 8 8 0 -1
BITMAP
18
08
08
08
08
08
18
00
ENDCHAR
STARTCHAR U+005e
ENCODING 94
SWIDTH 666 0
DWIDTH 8 0
BBX 8 8 0 -1
BITMAP
00
00
00
00
00
00
00
00
ENDCHAR
STARTCHAR U+005f
ENCODING 95
SWIDTH 666 0
DWIDTH 8 0
BBX 8 8 0 -1
BITMAP
00
00
00
00
00
00
00
7e
ENDCHAR
STARTCHAR U+0060
ENCODING 96
SWIDTH 666 0
DWIDTH 8 0
BBX 8 8 0 -1
BITMAP
00
00
00
00
00
00
00
00
ENDCHAR
STARTCHAR U+0061
ENCODING 97
SWIDTH 666 0
DWIDTH 8 0
BBX 8 8 0 -1
BITMAP
00
00
1c
24
24
24
1c
00
ENDCHAR
STARTCHAR U+0062
ENCODING 98
SWIDTH 666 0
DWIDTH 8 0
BBX 8 8 0 -1
BITMAP
20
20
38
24
24
24
38
00
ENDCHAR
STARTCHAR U+0063
ENCODING 99
SWIDTH 666 0
DWIDTH 8 0
BBX 8 8 0 -1
BITMAP
00
00
18
20
20
20
18
00
ENDCHAR
STARTCHAR U+0064
ENCODING 100
SWIDTH 666 0
DWIDTH 8 0
BBX 8 8 0 -1
BITMAP
04
04
1c
24
24
24
1c
00
ENDCHAR
STARTCHAR U+0065
ENCODING 101
SWIDTH 666 0
DWIDTH 8 0
BBX 8 8 0 -1
BITMAP
00
00
18
24
3c
20
1c
00
ENDCHAR
STARTCHAR U+0066
ENCODING 102
SWIDTH 666 0
DWIDTH 8 0
BBX 8 8 0 -1
BITMAP
0c
10
38
10
10
10
10
00
ENDCHAR
STARTCHAR U+0067
ENCODING 103
SWIDTH 666 0
DWIDTH 8 0
BBX 8 8 0 -1
BITMAP
00
00
1c
24
24
1c
04
18
ENDCHAR
STARTCHAR U+0068
ENCODING 104
SWIDTH 666 0
DWIDTH 8 0
BBX 8 8 0 -1
BITMAP
20
20
38
24
24
24
24
00
ENDCHAR
STARTCHAR U+0069
ENCODING 105
SWIDTH 666 0
DWIDTH 8 0
BBX 8 8 0 -1
BITMAP
10
00
10
10
10
10
10
00
ENDCHAR
STARTCHAR U+006a
ENCODING 106
SWIDTH 666 0
DWIDTH 8 0
BBX 8 8 0 -1
BITMAP
08
00
08
08
08
08
08
10
ENDCHAR
STARTCHAR U+006b
ENCODING 107
SWIDTH 666 0
DWIDTH 8 0
BBX 8 8 0 -1
BITMAP
20
20
24
28
30
28
24
00
ENDCHAR
STARTCHAR U+006c
ENCODING 108
SWIDTH 666 0
DWIDTH 8 0
BBX 8 8 0 -1
BITMAP
10
10
10
10
10
10
10
00
ENDCHAR
STARTCHAR U+006d
ENCODING 109
SWIDTH 666 0
DWIDTH 8 0
BBX 8 8 0 -1
BITMAP
00
00
ec
92
92
92
92
00
ENDCHAR
STARTCHAR U+006e
ENCODING 110
SWIDTH 666 0
DWIDTH 8 0
BBX 8 8 0 -1
BITMAP
00
00
38
24
24
24
24
00
ENDCHAR
STARTCHAR U+006f
ENCODING 111
SWIDTH 666 0
DWIDTH 8 0
BBX 8 8 0 -1
BITMAP
00
00
18
24
24
24
18
00
ENDCHAR
STARTCHAR U+0070
ENCODING 112
SWIDTH 666 0
DWIDTH 8 0
BBX 8 8 0 -1
BITMAP
00
00
38
24
24
38
20
20
ENDCHAR
STARTCHAR U+0071
ENCODING 113
SWIDTH 666 0
DWIDTH 8 0
BBX 8 8 0 -1
BITMAP
00
00
1c
24
24
1c
04
04
ENDCHAR
STARTCHAR U+0072
ENCODING 114
SWIDTH 666 0
DWIDTH 8 0
BBX 8 8 0 -1
BITMAP
00
00
28
30
20
20
20
00
ENDCHAR
STARTCHAR U+0073
ENCODING 115
SWIDTH 666 0
DWIDTH 8 0
BBX 8 8 0 -1
BITMAP
00
00
18
20
10
08
30
00
ENDCHAR
STARTCHAR U+0074
ENCODING 116
SWIDTH 666 0
DWIDTH 8 0
BBX 8 8 0 -1
BITMAP
10
10
38
10
10
10
08
00
ENDCHAR
STARTCHAR U+0075
ENCODING 117
SWIDTH 666 0
DWIDTH 8 0
BBX 8 8 0 -1
BITMAP
00
00
24
24
24
24
1c
00
ENDCHAR
STARTCHAR U+0076
ENCODING 118
SWIDTH 666 0
DWIDTH 8 0
BBX 8 8 0 -1
BITMAP
00
00
44
28
28
10
10
00
ENDCHAR
STARTCHAR U+0077
ENCODING 119
SWIDTH 666 0
DWIDTH 8 0
BBX 8 8 0 -1
BITMAP
00
00
54
54
54
28
28
00
ENDCHAR
STARTCHAR U+0078
ENCODING 120
SWIDTH 666 0
DWIDTH 8 0
BBX 8 8 0 -1
BITMAP
00
00
44
28
10
28
44
00
ENDCHAR
STARTCHAR U+0079
ENCODING 121
SWIDTH 666 0
DWIDTH 8 0
BBX 8 8 0 -1
BITMAP
00
00
22
14
14
08
10
20
ENDCHAR
STARTCHAR U+007a
ENCODING 122
SWIDTH 666 0
DWIDTH 8 0
BBX 8 8 0 -1
BITMAP
00
00
38
08
10
20
38
00
ENDCHAR
STARTCHAR U+007b
ENCODING 123
SWIDTH 666 0
DWIDTH 8 0
BBX 8 8 0 -1
BITMAP
08
10
10
20
10
10
08
00
ENDCHAR
STARTCHAR U+007c
ENCODING 124
SWIDTH 666 0
DWIDTH 8 0
BBX 8 8 0 -1
BITMAP
10
10
10
10
10
10
10
00
ENDCHAR
STARTCHAR U+007d
ENCODING 125
SWIDTH 666 0
DWIDTH 8 0
BBX 8 8 0 -1
BITMAP
20
10
10
08
10
10
20
00
ENDCHAR
STARTCHAR U+007e
ENCODING 126
SWIDTH 666 0
DWIDTH 8 0
BBX 8 8 0 -1
BITMAP
00
00
32
4c
00
00
00
00
ENDCHAR
STARTCHAR U+007f
ENCODING 127
SWIDTH 666 0
DWIDTH 8 0
BBX 8 8 0 -1
BITMAP
00
00
00
00
00
00
00
00
ENDCHAR
STARTCHAR U+0080
ENCODING 128
SWIDTH 666 0
DWIDTH 8 0
BBX 8 8 0 -1
BITMAP
00
00
00
00
00
00
00
00
ENDCHAR
STARTCHAR U+0081
ENCODING 129
SWIDTH 666 0
DWIDTH 8 0
BBX 8 8 0 -1
BITMAP
00
00
00
00
00
00
00
00
ENDCHAR
STARTCHAR U+0082
ENCODING 130
SWIDTH 666 0
DWIDTH 8 0
BBX 8 8 0 -1
BITMAP
00
00
00
00
00
00
00
00
ENDCHAR
STARTCHAR U+0083
ENCODING 131
SWIDTH 666 0
DWIDTH 8 0
BBX 8 8 0 -1
BITMAP
00
00
00
00
00
00
00
00
ENDCHAR
STARTCHAR U+0084
ENCODING 132
SWIDTH 666 0
DWIDTH 8 0
BBX 8 8 0 -1
BITMAP
00
00
00
00
00
00
00
00
ENDCHAR
STARTCHAR U+0085
ENCODING 133
SWIDTH 666 0
DWIDTH 8 0
BBX 8 8 0 -1
BITMAP
00
00
00
00
00
00
00
00
ENDCHAR
STARTCHAR U+0086
ENCODING 134
SWIDTH 666 0
DWIDTH 8 0
BBX 8 8 0 -1
BITMAP
00
00
00
00
00
00
00
00
ENDCHAR
STARTCHAR U+0087
ENCODING 135
SWIDTH 666 0
DWIDTH 8 0
BBX 8 8 0 -1
BITMAP
00
00
00
00
00
00
00
00
ENDCHAR
STARTCHAR U+0088
ENCODING 136
SWIDTH 666 0
DWIDTH 8 0
BBX 8 8 0 -1
BITMAP
00
00
00
00
00
00
00
00
ENDCHAR
STARTCHAR U+0089
ENCODING 137
SWIDTH 666 0
DWIDTH 8 0
BBX 8 8 0 -1
BITMAP
00
00
00
00
00
00
00
00
ENDCHAR
STARTCHAR U+008a
ENCODING 138
SWIDTH 666 0
DWIDTH 8 0
BBX 8 8 0 -1
BITMAP
00
00
00
00
00
00
00
00
ENDCHAR
STARTCHAR U+008b
ENCODING 139
SWIDTH 666 0
DWIDTH 8 0
BBX 8 8 0 -1
BITMAP
00
00
00
00
00
00
00
00
ENDCHAR
STARTCHAR U+008c
ENCODING 140
SWIDTH 666 0
DWIDTH 8 0
BBX 8 8 0 -1
BITMAP
00
00
00
00
00
00
00
00
ENDCHAR
STARTCHAR U+008d
ENCODING 141
SWIDTH 666 0
DWIDTH 8 0
BBX 8 8 0 -1
BITMAP
00
00
00
00
00
00
00
00
ENDCHAR
STARTCHAR U+008e
ENCODING 142
SWIDTH 666 0
DWIDTH 8 0
BBX 8 8 0 -1
BITMAP
00
00
00
00
00
00
00
00
ENDCHAR
STARTCHAR U+008f
ENCODING 143
SWIDTH 666 0
DWIDTH 8 0
BBX 8 8 0 -1
BITMAP
00
00
00
00
00
00
00
00
ENDCHAR
STARTCHAR U+0090
ENCODING 144
SWIDTH 666 0
DWIDTH 8 0
BBX 8 8 0 -1
BITMAP
00
00
00
00
00
00
00
00
ENDCHAR
STARTCHAR U+0091
ENCODING 145
SWIDTH 666 0
DWIDTH 8 0
BBX 8 8 0 -1
BITMAP
00
00
00
00
00
00
00
00
ENDCHAR
STARTCHAR U+0092
ENCODING 146
SWIDTH 666 0
DWIDTH 8 0
BBX 8 8 0 -1
BITMAP
00
00
00
00
00
00
00
00
ENDCHAR
STARTCHAR U+0093
ENCODING 147
SWIDTH 666 0
DWIDTH 8 0
BBX 8 8 0 -1
BITMAP
00
00
00
00
00
00
00
00
ENDCHAR
STARTCHAR U+0094
ENCODING 148
SWIDTH 666 0
DWIDTH 8 0
BBX 8 8 0 -1
BITMAP
00
00
00
00
00
00
00
00
ENDCHAR
STARTCHAR U+0095
ENCODING 149
SWIDTH 666 0
DWIDTH 8 0
BBX 8 8 0 -1
BITMAP
00
00
00
00
00
00
00
00
ENDCHAR
STARTCHAR U+0096
ENCODING 150
SWIDTH 666 0
DWIDTH 8 0
BBX 8 8 0 -1
BITMAP
00
00
00
00
00
00
00
00
ENDCHAR
STARTCHAR U+0097
ENCODING 151
SWIDTH 666 0
DWIDTH 8 0
BBX 8 8 0 -1
BITMAP
00
00
00
00
00
00
00
00
ENDCHAR
STARTCHAR U+0098
ENCODING 152
SWIDTH 666 0
DWIDTH 8 0
BBX 8 8 0 -1
BITMAP
00
00
00
00
00
00
00
00
ENDCHAR
STARTCHAR U+0099
ENCODING 153
SWIDTH 666 0
DWIDTH 8 0
BBX 8 8 0 -1
BITMAP
00
00
00
00
00
00
00
00
ENDCHAR
STARTCHAR U+009a
ENCODING 154
SWIDTH 666 0
DWIDTH 8 0
BBX 8 8 0 -1
BITMAP
00
00
00
00
00
00
00
00
ENDCHAR
STARTCHAR U+009b
ENCODING 155
SWIDTH 666 0
DWIDTH 8 0
BBX 8 8 0 -1
BITMAP
00
00
00
00
00
00
00
00
ENDCHAR
STARTCHAR U+009c
ENCODING 156
SWIDTH 666 0
DWIDTH 8 0
BBX 8 8 0 -1
BITMAP
00
00
00
00
00
00
00
00
ENDCHAR
STARTCHAR U+009d
ENCODING 157
SWIDTH 666 0
DWIDTH 8 0
BBX 8 8 0 -1
BITMAP
00
00
00
00
00
00
00
00
ENDCHAR
STARTCHAR U+009e
ENCODING 158
SWIDTH 666 0
DWIDTH 8 0
BBX 8 8 0 -1
BITMAP
00
00
00
00
00
00
00
00
ENDCHAR
STARTCHAR U+009f
ENCODING 159
SWIDTH 666 0
DWIDTH 8 0
BBX 8 8 0 -1
BITMAP
00
00
00
00
00
00
00
00
ENDCHAR
STARTCHAR U+00a0
ENCODING 160
SWIDTH 666 0
DWIDTH 8 0
BBX 8 8 0 -1
BITMAP
00
00
00
00
00
00
00
00
ENDCHAR
STARTCHAR U+00a1
ENCODING 161
SWIDTH 666 0
DWIDTH 8 0
BBX 8 8 0 -1
BITMAP
00
00
00
00
00
00
00
00
ENDCHAR
STARTCHAR U+00a2
ENCODING 162
SWIDTH 666 0
DWIDTH 8 0
BBX 8 8 0 -1
BITMAP
00
00
00
00
00
00
00
00
ENDCHAR
STARTCHAR U+00a3
ENCODING 163
SWIDTH 666 0
DWIDTH 8 0
BBX 8 8 0 -1
BITMAP
1c
20
20
78
20
20
7c
00
ENDCHAR
STARTCHAR U+00a4
ENCODING 164
SWIDTH 666 0
DWIDTH 8 0
BBX 8 8 0 -1
BITMAP
00
00
00
00
00
00
00
00
ENDCHAR
STARTCHAR U+00a5
ENCODING 165
SWIDTH 666 0
DWIDTH 8 0
BBX 8 8 0 -1
BITMAP
00
00
00
00
00
00
00
00
ENDCHAR
STARTCHAR U+00a6
ENCODING 166
SWIDTH 666 0
DWIDTH 8 0
BBX 8 8 0 -1
BITMAP
00
00
00
00
00
00
00
00
ENDCHAR
STARTCHAR U+00a7
ENCODING 167
SWIDTH 666 0
DWIDTH 8 0
BBX 8 8 0 -1
BITMAP
00
00
00
00
00
00
00
00
ENDCHAR
STARTCHAR U+00a8
ENCODING 168
SWIDTH 666 0
DWIDTH 8 0
BBX 8 8 0 -1
BITMAP
00
00
00
00
00
00
00
00
ENDCHAR
STARTCHAR U+00a9
ENCODING 169
SWIDTH 666 0
DWIDTH 8 0
BBX 8 8 0 -1
BITMAP
38
44
ba
a2
ba
44
38
00
ENDCHAR
ENDFONT
